# xmcd
#
# Track frame offsets:
#	150
#	17311
#	35866
#	52082
#	70584
#	84925
#	101653
#	115807
#	133253
#
# Disc length: 2019 seconds
#
# Revision: 1
# Processed by: cddbd v1.5.2PL0 Copyright (c) Steve Scherf et al.
# Submitted via: audiograbber 1.83.01
#
DISCID=7307e109
DTITLE=Goldenseal - Streets Of America
DYEAR=2009
DGENRE=Country
TTITLE0=Streets Of America
TTITLE1=Arizona Lightning (Cover Me)
TTITLE2=I Will Not Give Up On You
TTITLE3=Beautiful Day
TTITLE4=Rock The Night
TTITLE5=So Beautiful
TTITLE6=Live Strong/Be Free
TTITLE7=Beautiful Tonight
TTITLE8=Maryjane's Last Dance
EXTD=
EXTT0=
EXTT1=
EXTT2=
EXTT3=
EXTT4=
EXTT5=
EXTT6=
EXTT7=
EXTT8=
PLAYORDER=
